<svg width="2930" height="884" viewBox="0 0 2930 884" fill="none" xmlns="http://www.w3.org/2000/svg">
<path d="M112.879 209.582L366.372 31.9821C370.072 29.3903 374.479 28 378.996 28H529.813C536.257 28 542.377 30.8249 546.557 35.7288L664.769 174.417C668.162 178.398 670.026 183.458 670.026 188.689V332C670.026 344.15 660.176 354 648.026 354H386.896C369.574 354 359.047 373.091 368.291 387.74L462.871 537.625C464.267 539.839 466.202 541.663 468.494 542.928C482.641 550.733 497.802 534.403 488.969 520.873L419.214 414.027C409.661 399.393 420.16 380 437.636 380H771.812C783.962 380 793.812 389.85 793.812 402V673.641C793.812 679.443 791.521 685.009 787.437 689.129L622.376 855.645C614.873 863.214 603.024 864.317 594.253 858.261L15.2082 458.499C6.41477 452.429 3.25509 440.917 7.71718 431.208L105.512 218.413C107.141 214.868 109.684 211.82 112.879 209.582Z" fill="#FF1C81"/>
<path d="M2820.86 842.493L2924.78 156.493C2927.52 138.342 2913.47 122 2895.11 122H2718.66C2697.89 122 2683.41 142.601 2690.43 162.148L2805.13 481.234C2807.01 486.476 2803.13 492 2797.56 492C2794.73 492 2792.11 490.514 2790.66 488.087L2625.73 212.591C2620.32 203.54 2610.54 198 2599.99 198H2478.38C2465.1 198 2453.41 206.724 2449.62 219.447L2404.81 370.112C2400.82 383.508 2406.62 397.881 2418.78 404.769L2698.58 563.257C2717.91 574.204 2719.05 601.629 2700.7 614.145L2408.82 813.216C2384.44 829.848 2396.21 868 2425.73 868H2791.2C2806.04 868 2818.64 857.159 2820.86 842.493Z" fill="#FF1C81"/>
<path fill-rule="evenodd" clip-rule="evenodd" d="M1486.15 96.934L1287.26 278.874C1278.9 286.515 1274.6 297.618 1275.61 308.893L1326.8 787.419C1328.45 802.794 1348.78 807.125 1356.55 793.756L1466.71 604.171L1472.2 592.569C1474.84 586.978 1480.47 583.413 1486.66 583.413H1499.49H1576.17H1591.78C1599.04 583.413 1605.39 588.301 1607.24 595.32L1611.24 610.407L1633.72 695.371C1641.67 725.394 1681.21 732.2 1698.73 706.562L1822.67 525.257C1826.79 519.227 1829 512.092 1829 504.787V498.135C1829 490.26 1826.44 482.598 1821.7 476.308L1539.61 101.872C1526.73 84.7825 1501.94 82.4923 1486.15 96.934ZM1495.62 469.011C1485.67 469.011 1478.13 460.016 1479.87 450.214L1502.92 320.381C1505.92 303.506 1529.76 302.517 1534.14 319.085L1568.5 448.918C1571.19 459.068 1563.53 469.011 1553.03 469.011H1495.62Z" fill="#FF1C81"/>
<path d="M793 343H747C729.327 343 715 328.673 715 311V192.121C715 170.652 735.724 155.273 756.272 161.494L994.153 233.506C1003.53 236.344 1011.09 243.321 1014.67 252.439L1105.6 484.069C1107.95 490.06 1113.73 494 1120.17 494C1131.16 494 1138.73 482.96 1134.77 472.706L1050.25 254.151C1046.35 244.074 1047.8 232.711 1054.1 223.937L1166.37 67.6885C1183.48 43.8755 1220.94 53.6988 1224.16 82.8433L1282.9 614.038C1283.62 620.524 1282.33 627.074 1279.22 632.81L1175.54 824.004C1162.61 847.843 1127.75 845.802 1117.69 820.617L963.781 435.216C961.8 430.254 956.996 427 951.654 427C942.589 427 936.281 436.01 939.384 444.527L1027.03 685.172C1036.07 709.985 1012.86 734.447 987.602 726.724L847.642 683.924C834.188 679.81 825 667.391 825 653.323V375C825 357.327 810.673 343 793 343Z" fill="#FF1C81"/>
<path fill-rule="evenodd" clip-rule="evenodd" d="M1871.77 811.283C1867.66 820.821 1858.27 827 1847.89 827H1687.55C1666.4 827 1654.1 803.086 1666.4 785.879L1862.36 511.786C1867.78 504.206 1867.55 493.961 1861.81 486.625L1646.33 211.478C1630.03 190.674 1651.56 161.651 1676.2 171.206L1846.46 237.241C1849.46 238.404 1852.65 239 1855.87 239H2315.64C2338.3 239 2350.11 265.974 2334.75 282.63L2089.74 548.196C2082.13 556.436 2080.67 568.621 2086.1 578.428L2224.61 828.399C2234.21 845.728 2221.68 867 2201.87 867H1923.75C1905.26 867 1892.68 848.251 1899.69 831.144L1978.59 638.541C1982.6 628.741 1975.39 618 1964.8 618V618C1958.85 618 1953.48 621.54 1951.12 627.004L1871.77 811.283ZM2008.94 495.022C2004.78 503.849 2011.22 514 2020.98 514V514C2025.09 514 2028.98 512.096 2031.5 508.844L2138.74 370.467C2151.15 354.456 2141.29 331.033 2121.17 328.712L2107.55 327.14C2096.46 325.861 2085.8 331.797 2081.05 341.892L2008.94 495.022Z" fill="#FF1C81"/>
<path d="M2422.31 29.1106C2426.68 25.7681 2431.9 23.695 2437.37 23.1185L2441.48 22.6859C2462.71 20.4515 2479.42 40.473 2473.41 60.9562L2387.55 354L2337.4 568.53C2335.69 575.874 2341.26 582.9 2348.8 582.9V582.9C2353.14 582.9 2357.11 580.506 2359.14 576.677L2373.83 548.979C2379.08 539.069 2389.43 532.917 2400.64 533.032L2544.29 534.501C2561.6 534.678 2575.17 549.429 2573.9 566.694L2566.07 673.426C2565.39 682.626 2560.53 691.003 2552.87 696.143L2426.65 780.84C2417.75 786.811 2407.28 790 2396.56 790H2359.56H2244.49C2233.68 790 2223.71 784.184 2218.38 774.776L2146.08 647.008C2141.6 639.1 2140.95 629.589 2144.31 621.145L2208.19 460.561C2209.39 457.541 2211.07 454.735 2213.17 452.255L2356.74 282.831C2365.22 272.818 2366.21 258.453 2359.19 247.37L2353.84 238.934C2348.33 230.257 2338.77 225 2328.5 225H2299.47C2275.84 225 2261.48 198.939 2274.12 178.964L2316.13 112.544C2318.03 109.539 2320.45 106.895 2323.27 104.737L2422.31 29.1106Z" fill="#FF1C81"/>
</svg>
